<svg xmlns="http://www.w3.org/2000/svg" width="1024" height="1024"><g style="display:inline;opacity:1"><path d="M306.03 271.594s12.346 52.63 54.58 94.863l74.72 74.72-.65 46.133s-69.523-5.848-102.66-40.285c-33.137-34.436-48.344-58.656-51.98-100.06-5.751-65.511 25.99-75.371 25.99-75.371z" style="fill:#000;stroke:#000;stroke-width:1px;stroke-linecap:butt;stroke-linejoin:miter;stroke-opacity:1"/><path d="M249.957 342.733s14.294 83.167 63.675 124.75c24.77 20.887 96.425 53.541 119.956 55.631l-.403 34.685s-49.38 17.543-86.416 5.197c-36.18-12.06-82.518-40.284-100.71-88.365-18.194-48.081-17.299-72.246-14.945-87.716 4.548-29.888 18.843-44.182 18.843-44.182z" style="display:inline;fill:#000;stroke:#000;stroke-width:1px;stroke-linecap:butt;stroke-linejoin:miter;stroke-opacity:1"/><path d="M208.711 448.229s27.94 81.218 72.772 112.406c44.832 31.188 88.255 52.38 164.386 54.578 0 0 6.18 48.242 31.837 83.818 25.438 35.27 85.284 78.102 103.31 87.715-29.523 10.23-86.2 9.314-107.858 7.148-50.714-3.971-88.624-22.08-140.345-51.98-66.059-38.19-114.209-134.098-123.452-171.533-7.766-31.452-3.966-109.972-.65-122.152z" style="display:inline;fill:#000;stroke:#000;stroke-width:1px;stroke-linecap:butt;stroke-linejoin:miter;stroke-opacity:1"/><path d="M536.389 452.873h15.626s-2.98-61.726-1.03-76.02c1.949-14.295 24.69-59.777 47.431-71.472 22.741-11.696 48.24-19.571 48.24-19.571s-48.207-22.709-63.151-33.105c-14.944-10.396-35.12-29.494-52.013-33.09-16.571-3.529-44.925-8.018-74.72 18.192-24.106 21.205-25.34 53.28-24.69 63.025.649 9.747 5.847 30.571 16.893 49.414 11.045 18.842 13.644 37.003 12.995 54.546-.65 17.543-2.99 111.618-2.99 135.969 0 24.35 10.568 91.888 28.486 120.373s37.674 53.295 53.754 67.078c16.08 13.783 55.133 40.89 85.916 41.81 30.782.918 103.373-56.512 103.373-56.512s-27.106-5.513-47.322-13.324c-20.215-7.81-64.149-32.835-74.43-40.89-39.995-31.336-69.454-77.615-84.995-105.67-6.597-11.908-18.192-41.3-27.992-74.765-10.268-35.062-16.766-78.226-17.034-83.283-1.078-20.41-3.184-27.374-7.326-36.067a574.663 574.663 0 0 1-17.483-40.66c-7.888-20.486-5.953-29.805-4.765-41.78 1.223-12.34 9.475-20.12 17.17-28.514 15.161-16.54 38.123-17.003 49.16-17 10.57.005 23.575 4.647 40.43 18.378 9.622 7.838 19.297 22.513 19.756 35.377.46 12.865.46 21.594.46 21.594-3.216 2.757-22.586 23.702-32.161 47.782-6.704 16.858-10.524 39.599-9.648 55.592.778 14.221 2.06 42.593 2.06 42.593z" style="fill:#000;stroke:#000;stroke-width:1px;stroke-linecap:butt;stroke-linejoin:miter;stroke-opacity:1"/><path d="M482.412 276.123c4.135-.172 5.849 1.116 6.662 2.298 1.476 2.145 4.985 12.553 13.094 14.242 5.513 1.149 13.553.46 17.459-1.838 3.905-2.297 6.661-13.094 9.648-14.931 4.703-2.895 10.555 1.324 11.256 4.594 1.378 6.432-8.829 18.89-13.094 22.053-3.402 2.524-13.553 6.432-21.823 5.743-8.27-.689-18.895-6.432-22.857-11.026-4.995-5.79-7.24-14.264-6.203-16.54.954-2.09 3.33-4.345 5.858-4.595zM563.273 446.074l.65 41.034s54.483.817 80.212-11.128c25.728-11.946 68.22-50.112 80.165-76.76 11.946-26.647 16.317-49.127 16.317-78.53 0-29.405-23.622-50.558-23.622-50.558s-12.508 33.3-21.604 46.944c-4.595 6.892-16.894 28.427-30.376 41.584-9.531 9.301-31.025 32.65-42.233 43.37-8.501 8.132-29.564 25.34-36.873 30.539-7.31 5.197-22.636 13.505-22.636 13.505z" style="fill:#000;stroke:#000;stroke-width:1px;stroke-linecap:butt;stroke-linejoin:miter;stroke-opacity:1"/><path d="M570.477 520.447s11.627 32.324 31.188 40.934c17.234 7.585 52.935 3.58 70.01-.65 18.355-4.548 59.127-26.477 78.62-48.569 19.492-22.09 37.847-59.939 39.147-87.228 1.3-27.29 4.566-57.934-17.544-86.091 0 0-15.162 53.104-19.005 59.939-5.681 10.107-31.512 50.68-48.568 65.3-27.924 23.934-55.878 36.223-74.071 42.72-18.193 6.497-59.777 13.645-59.777 13.645z" style="fill:#000;stroke:#000;stroke-width:1px;stroke-linecap:butt;stroke-linejoin:miter;stroke-opacity:1"/><path d="M589.461 607.839s35.607 37.215 55.822 48.241c20.216 11.027 52.377 27.567 76.957 30.323 24.58 2.757 31.7.69 31.7.69s25.27-32.161 28.946-37.904c3.675-5.743 21.799-42.114 25.728-54.903 4-13.02 11.995-49.527 14.798-83.7 1.896-23.12-3.229-63.47-5.839-70.285 0 0-12.405 36.138-16.77 41.881-4.364 5.743-24.809 43.647-33.998 52.606-9.189 8.96-33.65 29.539-47.663 37.35-14.013 7.81-53.558 24.366-65.503 27.123-11.946 2.756-64.178 8.578-64.178 8.578z" style="fill:#000;stroke:#000;stroke-width:1px;stroke-linecap:butt;stroke-linejoin:miter;stroke-opacity:1"/></g></svg>